<?xml version="1.0" standalone="no"?>
<!DOCTYPE svg PUBLIC "-//W3C//DTD SVG 20010904//EN"
 "http://www.w3.org/TR/2001/REC-SVG-20010904/DTD/svg10.dtd">
<svg version="1.0" xmlns="http://www.w3.org/2000/svg"
 width="1544.000000pt" height="1544.000000pt" viewBox="0 0 1544.000000 1544.000000"
 preserveAspectRatio="xMidYMid meet">

<g transform="translate(0.000000,1544.000000) scale(0.100000,-0.100000)"
fill="#000000" stroke="none">
<path d="M10915 12851 c-700 -181 -1234 -532 -1676 -1101 -45 -58 -85 -106
-90 -108 -4 -2 -43 6 -85 18 -43 11 -139 34 -213 50 -967 205 -2167 137 -3067
-173 l-121 -41 -63 69 c-548 604 -1204 938 -2020 1031 -187 21 -287 16 -360
-18 -152 -70 -217 -172 -254 -397 -69 -413 -32 -1060 100 -1776 36 -194 109
-532 143 -662 l19 -71 -60 -89 c-653 -971 -934 -2339 -732 -3558 170 -1024
696 -1851 1559 -2452 115 -80 293 -190 412 -254 46 -24 83 -47 83 -51 0 -4
-29 -103 -66 -220 -148 -481 -273 -1021 -360 -1558 -35 -219 -74 -488 -74
-515 0 -19 30 -38 218 -133 265 -134 392 -192 630 -288 743 -300 1475 -468
2332 -536 238 -19 872 -16 1120 5 965 83 1821 309 2665 705 l170 79 -3 159
c-13 729 -113 1649 -263 2423 -16 84 -28 155 -27 156 2 1 48 30 103 65 492
310 956 742 1291 1205 435 601 692 1261 776 1995 8 72 13 228 12 415 -1 319
-10 425 -60 700 -150 819 -571 1602 -1212 2256 l-105 107 27 138 c140 739 83
1489 -156 2071 -51 124 -102 219 -141 262 -35 38 -118 88 -177 105 -76 23
-149 19 -275 -13z m-330 -3295 c235 -61 449 -204 596 -399 102 -135 198 -353
184 -416 -9 -40 -46 -72 -92 -78 -42 -5 -45 -4 -185 110 -45 37 -108 82 -138
100 -354 209 -782 221 -1136 33 -110 -58 -188 -120 -300 -233 -85 -86 -94 -93
-131 -93 -46 0 -88 32 -99 75 -19 74 74 334 169 475 160 238 424 404 712 450
107 16 308 5 420 -24z m-3500 -57 c431 -53 810 -353 995 -789 20 -47 45 -114
54 -149 16 -59 17 -67 2 -106 -12 -30 -27 -48 -57 -64 -62 -35 -95 -24 -187
62 -92 87 -148 132 -224 180 -136 87 -291 150 -448 184 -104 22 -382 25 -475
4 -95 -21 -244 -71 -310 -103 -153 -76 -323 -214 -435 -352 -72 -88 -114 -105
-176 -67 -17 10 -39 36 -49 57 -17 37 -17 42 -1 129 96 506 474 906 941 998
146 29 232 33 370 16z m2549 -1770 c63 -49 91 -175 54 -245 -47 -87 -184 -270
-263 -351 -107 -109 -153 -133 -253 -133 -111 1 -223 57 -448 226 -216 161
-246 200 -247 310 -1 53 3 68 27 99 15 20 39 40 53 46 24 9 832 66 974 68 63
1 81 -3 103 -20z m617 -896 c36 -94 -70 -324 -215 -468 -165 -165 -333 -208
-564 -145 -91 24 -146 15 -212 -35 -25 -19 -70 -52 -100 -73 -310 -219 -698
-179 -996 101 -61 58 -92 96 -115 142 -33 68 -33 97 3 116 33 18 84 2 225 -71
73 -38 156 -73 184 -79 108 -23 315 -6 423 36 68 27 168 98 230 165 33 35 77
82 98 105 65 69 86 67 233 -21 149 -91 300 -99 472 -25 80 34 120 68 189 161
92 123 125 143 145 91z m-2079 -3523 c363 -109 666 -254 880 -422 l27 -21 78
83 c134 143 288 243 476 309 107 37 140 39 171 8 36 -36 83 -216 107 -410 16
-137 6 -436 -19 -543 -23 -101 -41 -130 -90 -145 -35 -10 -50 -7 -163 30 -147
49 -337 142 -446 217 -68 47 -79 52 -88 37 -120 -197 -238 -319 -417 -432
-178 -112 -422 -180 -486 -135 -42 29 -155 284 -201 454 -53 196 -72 388 -60
610 12 247 34 351 77 375 37 19 43 19 154 -15z"/>
</g>
</svg>
